sfk_cyclingleg_x_-0.1_y_-0.04_states
version=1
nRows=4
nColumns=53
inDegrees=yes

# SIMM Motion File Header:
name sfk_cyclingleg_x_-0.1_y_-0.04_states
datacolumns 53
datarows 4
otherdata 1
range 0.24310655 0.24347158
endheader
time	/jointset/bb/crank_angle/value	/jointset/bb/crank_angle/speed	/jointset/spindle/pedal_angle_r/value	/jointset/spindle/pedal_angle_r/speed	/jointset/ground_pelvis/pelvis_tilt/value	/jointset/ground_pelvis/pelvis_tilt/speed	/jointset/ground_pelvis/pelvis_list/value	/jointset/ground_pelvis/pelvis_list/speed	/jointset/ground_pelvis/pelvis_rotation/value	/jointset/ground_pelvis/pelvis_rotation/speed	/jointset/ground_pelvis/pelvis_tx/value	/jointset/ground_pelvis/pelvis_tx/speed	/jointset/ground_pelvis/pelvis_ty/value	/jointset/ground_pelvis/pelvis_ty/speed	/jointset/ground_pelvis/pelvis_tz/value	/jointset/ground_pelvis/pelvis_tz/speed	/jointset/hip_r/hip_angle_r/value	/jointset/hip_r/hip_angle_r/speed	/jointset/hip_r/hip_adduction_r/value	/jointset/hip_r/hip_adduction_r/speed	/jointset/hip_r/hip_rotation_r/value	/jointset/hip_r/hip_rotation_r/speed	/jointset/knee_r/knee_angle_r/value	/jointset/knee_r/knee_angle_r/speed	/jointset/knee_r/tib_tx_r/value	/jointset/knee_r/tib_tx_r/speed	/jointset/knee_r/tib_ty_r/value	/jointset/knee_r/tib_ty_r/speed	/jointset/tib_pat_r/pat_angle_r/value	/jointset/tib_pat_r/pat_angle_r/speed	/jointset/tib_pat_r/pat_tx_r/value	/jointset/tib_pat_r/pat_tx_r/speed	/jointset/tib_pat_r/pat_ty_r/value	/jointset/tib_pat_r/pat_ty_r/speed	/jointset/ankle_r/ankle_angle_r/value	/jointset/ankle_r/ankle_angle_r/speed	/jointset/subtalar_r/subtalar_angle_r/value	/jointset/subtalar_r/subtalar_angle_r/speed	/jointset/mtp_r/mtp_angle_r/value	/jointset/mtp_r/mtp_angle_r/speed	/forceset/bifemlh_r/activation	/forceset/bifemlh_r/fiber_length	/forceset/bifemsh_r/activation	/forceset/bifemsh_r/fiber_length	/forceset/glut_max2_r/activation	/forceset/glut_max2_r/fiber_length	/forceset/vas_int_r/activation	/forceset/vas_int_r/fiber_length	/forceset/med_gas_r/activation	/forceset/med_gas_r/fiber_length	/forceset/tib_ant_r/activation	/forceset/tib_ant_r/fiber_length
      0.24310655	   -126.85972485	   -480.13863232	    145.70105840	    571.48250080	      0.00000000	     -0.00000000	      0.00000000	     -0.00000000	      0.00000000	     -0.00000000	     -0.10000000	      0.00000000	     -0.04000000	     -0.00000000	      0.00000000	      0.00000000	     46.34095368	   -229.56385912	      4.37247819	     -0.64542985	      1.59818000	     25.74005076	    -50.14267872	    279.51619265	      0.00386875	     -0.03355465	     -0.47308888	      0.07715289	     17.08449065	    -12.44575101	      0.04563606	      0.07712313	     -0.02329415	     -0.01085439	     23.05070953	     41.21129263	     -0.00000000	     -0.00000000	      0.00000000	      0.00000000	     -0.00585785	      0.13059353	     -0.00585785	      0.17177035	     -0.00585785	      0.13572077	     -0.00585785	      0.12216502	     -0.00585785	      0.14940400	     -0.00585785	      0.11576464
      0.24322832	   -126.91819084	   -480.13863232	    145.77064688	    571.47677853	      0.00000000	     -0.00000000	      0.00000000	     -0.00000000	      0.00000000	     -0.00000000	     -0.10000000	      0.00000000	     -0.04000000	     -0.00000000	      0.00000000	      0.00000000	     46.31300155	   -229.53707374	      4.37239949	     -0.64718595	      1.60131460	     25.74445952	    -50.10864894	    279.40739213	      0.00386466	     -0.03358016	     -0.47307949	      0.07709025	     17.08297374	    -12.46873809	      0.04564545	      0.07707255	     -0.02329547	     -0.01085350	     23.05573251	     41.28894287	     -0.00000000	     -0.00000000	      0.00000000	      0.00000000	     -0.00587353	      0.13058417	     -0.00587353	      0.17179015	     -0.00587353	      0.13570064	     -0.00587353	      0.12213774	     -0.00587353	      0.14941540	     -0.00587353	      0.11576039
      0.24334833	   -126.97581371	   -480.13863232	    145.83923117	    571.47098376	      0.00000000	     -0.00000000	      0.00000000	     -0.00000000	      0.00000000	     -0.00000000	     -0.10000000	      0.00000000	     -0.04000000	     -0.00000000	      0.00000000	      0.00000000	     46.28545572	   -229.51040737	      4.37232172	     -0.64891302	      1.60440453	     25.74878673	    -50.07512288	    279.29975487	      0.00386063	     -0.03360512	     -0.47307024	      0.07702842	     17.08147598	    -12.49137479	      0.04565470	      0.07702260	     -0.02329677	     -0.01085261	     23.06069231	     41.36545709	     -0.00000000	     -0.00000000	      0.00000000	      0.00000000	     -0.00588898	      0.13057495	     -0.00588898	      0.17180965	     -0.00588898	      0.13568080	     -0.00588898	      0.12211086	     -0.00588898	      0.14942788	     -0.00588898	      0.11575620
      0.24347158	   -127.03499129	   -480.13863232	    145.90966518	    571.46487099	      0.00000000	     -0.00000000	      0.00000000	     -0.00000000	      0.00000000	     -0.00000000	     -0.10000000	      0.00000000	     -0.04000000	     -0.00000000	      0.00000000	      0.00000000	     46.25717003	   -229.48274438	      4.37224163	     -0.65068284	      1.60757837	     25.75321188	    -50.04070574	    279.18879241	      0.00385649	     -0.03363057	     -0.47306075	      0.07696481	     17.07993497	    -12.51460241	      0.04566419	      0.07697121	     -0.02329811	     -0.01085169	     23.06579549	     41.44401830	     -0.00000000	     -0.00000000	      0.00000000	      0.00000000	     -0.00590485	      0.13056548	     -0.00590485	      0.17182967	     -0.00590485	      0.13566042	     -0.00590485	      0.12208325	     -0.00590485	      0.14943899	     -0.00590485	      0.11575188
